# AST/ASF file generated using VICON BodyLanguage
# -----------------------------------------------
:version 1.10
:name VICON
:units
  mass 1.0
  length 0.45
  angle deg
:documentation
   .ast/.asf automatically generated from VICON data using
   VICON BodyBuilder and BodyLanguage model FoxedUp or BRILLIANT.MOD
:root
   order TX TY TZ RX RY RZ
   axis XYZ
   position 0 0 0  
   orientation 0 0 0 
:bonedata
  begin
     id 1 
     name lhipjoint
     direction 0.729592 -0.560644 0.39163 
     length 2.81907 
     axis 0 0 0  XYZ
  end
  begin
     id 2 
     name lfemur
     direction 0.34202 -0.939693 0  
     length 5.92797  
     axis 0 0 20  XYZ
    dof rx ry rz
    limits (-160.0 20.0)
           (-70.0 70.0)
           (-60.0 70.0)
  end
  begin
     id 3 
     name ltibia
     direction 0.34202 -0.939693 0   
     length 7.88118   
     axis 0 0 20   XYZ
    dof rx
    limits (-10.0 170.0)
  end
  begin
     id 4 
     name lfoot
     direction 0.0476411 -0.130893 0.990251   
     length 1.97348   
     axis -90 7.62852e-016 20   XYZ
    dof rx rz
    limits (-45.0 90.0)
           (-70.0 20.0)
  end
  begin
     id 5 
     name ltoes
     direction 1.53635e-011 -4.21786e-011 1   
     length 0.999366   
     axis -90 7.62852e-016 20   XYZ
    dof rx
    limits (-90.0 20.0)
  end
  begin
     id 6 
     name rhipjoint
     direction -0.702143 -0.583724 0.407752   
     length 2.70761  
     axis 0 0 0  XYZ 
  end
  begin
     id 7 
     name rfemur
     direction -0.34202 -0.939693 0   
     length 5.98021   
     axis 0 0 -20   XYZ
    dof rx ry rz
    limits (-160.0 20.0)
           (-70.0 70.0)
           (-70.0 60.0)
  end
  begin
     id 8 
     name rtibia
     direction -0.34202 -0.939693 0   
     length 7.66627   
     axis 0 0 -20   XYZ
    dof rx
    limits (-10.0 170.0)
 end
 begin
     id 9 
     name rfoot
     direction -0.0516088 -0.141794 0.98855   
     length 2.01387  
     axis -90 -7.62852e-016 -20   XYZ
    dof rx rz
    limits (-45.0 90.0)
           (-20.0 70.0)
  end
  begin
     id 10 
     name rtoes
     direction -1.53568e-011 -4.21939e-011 1   
     length 1.01862   
     axis -90 -7.62852e-016 -20   XYZ
    dof rx
    limits (-90.0 20.0)
  end
  begin
     id 11 
     name lowerback
     direction -0.0436953 0.98817 -0.147007   
     length 1.83615   
     axis 0 0 0   XYZ
    dof rx ry rz
    limits (-20.0 45.0)
           (-30.0 30.0)
           (-30.0 30.0)
  end
  begin
     id 12 
     name upperback
     direction 0.0239184 0.998197 0.0550483   
     length 1.80285   
     axis 0 0 0   XYZ
    dof rx ry rz
    limits (-20.0 45.0)
           (-30.0 30.0)
           (-30.0 30.0)
  end
  begin
     id 13 
     name thorax
     direction 0.0460768 0.990713 0.127927   
     length 1.87059   
     axis 0 0 0   XYZ
    dof rx ry rz
    limits (-20.0 45.0)
           (-30.0 30.0)
           (-30.0 30.0)
  end
  begin
     id 14 
     name lowerneck
     direction -0.0234223 0.997727 0.0631897   
     length 1.79511   
     axis 0 0 0   XYZ
    dof rx ry rz
    limits (-20.0 45.0)
           (-30.0 30.0)
           (-30.0 30.0)
  end
  begin
     id 15 
     name upperneck
     direction 0.0345303 0.984409 -0.172474   
     length 1.80359   
     axis 0 0 0   XYZ
    dof rx ry rz
    limits (-20.0 45.0)
           (-30.0 30.0)
           (-30.0 30.0)
  end
  begin
     id 16
     name head
     direction 0.00973222 0.9978 -0.0655778  
     length 1.81938  
     axis 0 0 0   XYZ
    dof rx ry rz
    limits (-20.0 45.0)
           (-30.0 30.0)
           (-30.0 30.0)
  end
  begin
     id 17 
     name lclavicle
     direction 0.971201 0.212597 -0.10757  
     length 3.74698  
     axis 0 0 0   XYZ
    dof ry rz
    limits (-20.0 10.0)
           (0.0 20.0)
  end
  begin
     id 18 
     name lhumerus
     direction 1 -4.4896e-011 1.42684e-027   
     length 4.83799   
     axis 180 -30 -90   XYZ
    dof rx ry rz
    limits (-60.0 90.0)
           (-90.0 90.0)
           (-90.0 90.0)
  end
  begin
     id 19
     name lradius
     direction 1 -4.48978e-011 1.53407e-026   
     length 2.68259   
     axis 180 -30 -90   XYZ
    dof rx
    limits (-10.0 170.0)
  end
  begin
     id 20
     name lwrist
     direction 1 -4.48982e-011 3.34345e-026   
     length 1.34129   
     axis -2.22354e-014 90 90   XYZ
    dof ry
    limits (-180.0 0.0)
 end
  begin
     id 21 
     name lhand
     direction 1 -4.48992e-011 6.6869e-026   
     length 0.724765   
     axis -4.26681e-014 90 90   XYZ
    dof rx rz
    limits (-90.0 90.0)
           (-45.0 45.0)
  end
  begin
     id 22 
     name lfingers
     direction 1 -4.48965e-011 1.33738e-025   
     length 0.584325   
     axis -8.53362e-014 90 90   XYZ
    dof rx
    limits (0.0 90.0)
  end
  begin
     id 23
     name lthumb
     direction 0.707107 -6.34915e-011 0.707107   
     length 0.838977   
     axis -90 45 2.85299e-015   XYZ
    dof rx rz
    limits (-45.0 45.0)
           (-45.0 45.0)
  end
  begin
     id 24 
     name rclavicle
     direction -0.987829 0.146084 -0.0534135   
     length 3.83678  
     axis 0 0 0   XYZ 
    dof ry rz
    limits (-10.0 20.0)
           (-20.0 0.0)
  end
  begin
     id 25 
     name rhumerus
     direction -1 -4.48963e-011 -3.4086e-018  
     length 4.61639   
     axis 180 30 90   XYZ
    dof rx ry rz
    limits (-90.0 60.0)
           (-90.0 90.0)
           (-90.0 90.0)
  end
  begin
     id 26 
     name rradius
     direction -1 -4.48983e-011 1.36226e-026   
     length 2.86915   
     axis 180 30 90   XYZ
    dof rx
    limits (-10.0 170.0)
  end
  begin
     id 27 
     name rwrist
     direction -1 -4.48927e-011 3.34345e-026   
     length 1.43458   
     axis -2.22354e-014 -90 -90   XYZ
    dof ry
    limits (-180.0 0.0)
  end
  begin
     id 28
     name rhand
     direction -1 -4.49071e-011 6.6869e-026   
     length 0.726007   
     axis -4.26681e-014 -90 -90   XYZ
    dof rx rz
    limits (-90.0 90.0)
           (-45.0 45.0)
  end
  begin
     id 29
     name rfingers
     direction -1 -4.48886e-011 1.33738e-025   
     length 0.585326   
     axis -8.53362e-014 -90 -90   XYZ
    dof rx
    limits (0.0 90.0)
  end
  begin
     id 30
     name rthumb
     direction -0.707107 -6.34932e-011 0.707107   
     length 0.840414   
     axis -90 -45 -2.85299e-015   XYZ
    dof rx rz
    limits (-45.0 45.0)
           (-45.0 45.0)
  end
:hierarchy
  begin
    root lhipjoint rhipjoint lowerback
    lhipjoint lfemur
    lfemur ltibia
    ltibia lfoot
    lfoot ltoes
    rhipjoint rfemur
    rfemur rtibia
    rtibia rfoot
    rfoot rtoes
    lowerback upperback
    upperback thorax
    thorax lowerneck lclavicle rclavicle
    lowerneck upperneck
    upperneck head
    lclavicle lhumerus
    lhumerus lradius
    lradius lwrist
    lwrist lhand lthumb
    lhand lfingers
    rclavicle rhumerus
    rhumerus rradius
    rradius rwrist
    rwrist rhand rthumb
    rhand rfingers
  end

#!OML:ASF F:\VICON\USERDATA\INSTALL\rory3\rory3.ASF
:FULLY-SPECIFIED
:DEGREES
400
root -0.987905 15.7899 22.1968 2.32076 2.3873 5.95438
lowerback 11.528 -0.723475 -8.78397
upperback -5.07366 -2.32579 0.98216
thorax -11.7244 -0.378173 6.54317
lowerneck -9.83243 -5.06793 -4.41374
upperneck 19.2754 -6.86721 3.10258
head 7.82551 -3.31266 1.0794
rclavicle 1.88845e-015 3.57812e-014
rhumerus -46.3615 -4.8965 -81.4701
rradius 20.1363
rwrist 12.2845
rhand -7.78393 21.7303
rfingers 7.12502
rthumb 18.1167 -7.44596
lclavicle 1.88845e-015 3.57812e-014
lhumerus -31.7064 3.12852 86.6894
lradius 30.2176
lwrist 3.22944
lhand -5.67045 19.0432
lfingers 7.12502
lthumb 20.1491 48.0183
rfemur -31.9156 20.3812 9.01105
rtibia 25.2136
rfoot -9.47954 -17.2989
rtoes 40.0875
lfemur 25.3995 -9.30977 -32.9377
ltibia -2.22639e-014
lfoot -7.39268 1.98168
ltoes 11.5343
401
root -1.011 15.7807 22.3659 2.19029 2.37091 5.80913
lowerback 11.5104 -0.71714 -8.63413
upperback -5.11497 -2.28815 1.02338
thorax -11.7692 -0.366 6.49678
lowerneck -9.79094 -5.06911 -4.39348
upperneck 19.352 -6.86473 3.03996
head 7.84028 -3.31619 1.0563
rclavicle 1.68967e-015 6.36111e-015
rhumerus -46.233 -4.92853 -81.3492
rradius 19.9683
rwrist 12.431
rhand -7.67854 21.6296
rfingers 7.12502
rthumb 18.2181 -7.53721
lclavicle 1.68967e-015 6.36111e-015
lhumerus -32.2647 3.74214 86.4849
lradius 29.838
lwrist 2.82542
lhand -5.87897 18.3703
lfingers 7.12502
lthumb 19.9487 47.3663
rfemur -31.6243 19.3084 9.911
rtibia 26.2514
rfoot -8.22976 -16.549
rtoes 38.7528
lfemur 26.0916 -8.89948 -32.5958
ltibia 9.54166e-015
lfoot -6.72975 1.66817
ltoes 10.7301
402
root -1.03603 15.7682 22.5355 2.01611 2.34503 5.81382
lowerback 11.505 -0.718444 -8.73579
upperback -5.10187 -2.2987 1.08656
thorax -11.7448 -0.361726 6.6267
lowerneck -9.82833 -5.05234 -4.4689
upperneck 19.4407 -6.82494 3.01452
head 7.87678 -3.30423 1.06259
rclavicle -1.32192e-014 1.11319e-014
rhumerus -46.0509 -4.75181 -81.2564
rradius 19.909
rwrist 12.5862
rhand -7.78365 21.594
rfingers 7.12502
rthumb 18.117 -7.58221
lclavicle -1.32192e-014 1.11319e-014
lhumerus -32.7618 4.30984 86.3106
lradius 29.4906
lwrist 2.53308
lhand -5.85058 17.8216
lfingers 7.12502
lthumb 19.976 46.8149
rfemur -31.4099 18.3921 10.5606
rtibia 27.45
rfoot -7.61732 -15.908
rtoes 38.6354
lfemur 26.7912 -8.47244 -32.4247
ltibia -3.81667e-014
lfoot -5.96256 1.46291
ltoes 8.58866
403
root -1.06043 15.7532 22.6951 1.89431 2.30417 5.71865
lowerback 11.5516 -0.699853 -8.72071
upperback -5.11294 -2.26799 1.16252
thorax -11.789 -0.341427 6.69943
lowerneck -9.83994 -5.06671 -4.48617
upperneck 19.463 -6.82812 2.94546
head 7.88467 -3.31326 1.04191
rclavicle 1.90833e-014 3.02153e-014
rhumerus -45.7175 -4.75621 -81.0482
rradius 19.5692
rwrist 12.944
rhand -8.36133 22.1958
rfingers 7.12502
rthumb 17.5611 -7.03112
lclavicle 1.90833e-014 3.02153e-014
lhumerus -33.2478 4.88278 86.1325
lradius 29.2191
lwrist 2.27344
lhand -5.799 17.548
lfingers 7.12502
lthumb 20.0256 46.5361
rfemur -31.3442 17.5269 11.2556
rtibia 28.6387
rfoot -6.93497 -15.3545
rtoes 38.7891
lfemur 27.4118 -8.04909 -32.1217
ltibia 1.04958e-013
lfoot -4.92719 1.16577
ltoes 8.57836
404
root -1.08347 15.7422 22.8443 1.91439 2.23412 5.6153
lowerback 11.5129 -0.674036 -8.62159
upperback -5.13994 -2.21243 1.17869
thorax -11.8078 -0.320053 6.64886
lowerneck -9.81445 -5.0388 -4.40038
upperneck 19.4082 -6.80534 2.95251
head 7.8579 -3.29619 1.0338
rclavicle 7.35503e-015 -6.36111e-015
rhumerus -45.162 -5.17532 -80.6982
rradius 18.9507
rwrist 13.7313
rhand -8.7671 22.63
rfingers 7.12502
rthumb 17.1706 -6.6313
lclavicle 7.35503e-015 -6.36111e-015
lhumerus -33.6691 5.23664 85.9572
lradius 28.9729
lwrist 2.23597
lhand -5.82562 17.5164
lfingers 7.12502
lthumb 20 46.5072
rfemur -31.3932 16.4738 11.9732
rtibia 29.7566
rfoot -6.09276 -14.4421
rtoes 38.8318
lfemur 24.2763 -7.59068 -31.784
ltibia 6.19421
lfoot -6.36813 0.7692
ltoes 9.41442
405
root -1.11316 15.7371 22.9919 1.86697 2.19393 5.43269
lowerback 11.5632 -0.690785 -8.61012
upperback -5.16337 -2.22906 1.2703
thorax -11.8593 -0.320359 6.7513
lowerneck -9.66661 -4.93257 -4.29773
upperneck 19.287 -6.6755 2.93971
head 7.7816 -3.23092 1.03118
rclavicle -7.70291e-015 1.27222e-014
rhumerus -44.5971 -5.32037 -80.5353
rradius 18.4069
rwrist 14.1634
rhand -8.63604 22.4388
rfingers 7.12502
rthumb 17.2968 -6.81154
lclavicle -7.70291e-015 1.27222e-014
lhumerus -34.1848 5.70505 85.7294
lradius 28.7853
lwrist 2.27904
lhand -5.59486 18.8413
lfingers 7.12502
lthumb 20.2218 47.8087
rfemur -31.313 15.6527 12.7844
rtibia 30.7997
rfoot -5.42933 -13.5883
rtoes 38.0256
lfemur 22.3994 -7.18489 -31.2576
ltibia 10.1524
lfoot -6.46148 0.346144
ltoes 10.5307
406
root -1.14443 15.7351 23.1481 1.65796 2.08288 5.25184
lowerback 11.8092 -0.651587 -8.62759
upperback -5.25414 -2.19664 1.36558
thorax -12.1162 -0.280023 6.87636
lowerneck -9.67431 -4.90955 -4.16628
upperneck 19.5781 -6.64219 2.76433
head 7.86715 -3.22077 0.95311
rclavicle 1.19768e-014 -1.03368e-014
rhumerus -44.3997 -5.63704 -80.1825
rradius 18.104
rwrist 14.8894
rhand -8.55754 22.2231
rfingers 7.12502
rthumb 17.3723 -7.02059
lclavicle 1.19768e-014 -1.03368e-014
lhumerus -35.0511 6.00971 85.5583
lradius 28.7332
lwrist 2.46193
lhand -5.31073 20.1959
lfingers 7.12502
lthumb 20.4948 49.1342
rfemur -30.9842 15.1184 13.5933
rtibia 31.7298
rfoot -4.91165 -12.8461
rtoes 36.1464
lfemur 21.0005 -6.1679 -30.5101
ltibia 13.4733
lfoot -5.94586 -0.581833
ltoes 9.51476
407
root -1.17247 15.732 23.308 1.45035 1.97791 5.30374
lowerback 12.0438 -0.5881 -8.78372
upperback -5.34626 -2.16538 1.36452
thorax -12.3699 -0.233773 6.97232
lowerneck -9.7356 -4.95266 -4.17886
upperneck 19.9328 -6.69615 2.69181
head 7.99612 -3.25204 0.921025
rclavicle 1.40143e-014 -2.38542e-015
rhumerus -44.2856 -5.79188 -79.943
rradius 18.0096
rwrist 15.4636
rhand -8.49794 22.1411
rfingers 7.12502
rthumb 17.4297 -7.0975
lclavicle 1.40143e-014 -2.38542e-015
lhumerus -35.8075 6.30006 85.4027
lradius 28.3697
lwrist 2.51502
lhand -5.64765 19.7494
lfingers 7.12502
lthumb 20.171 48.7221
rfemur -30.5809 14.6205 14.1015
rtibia 32.5722
rfoot -4.54715 -12.2258
rtoes 33.8706
lfemur 19.7168 -5.1385 -29.9838
ltibia 16.5187
lfoot -5.11926 -1.54478
ltoes 9.08206
408
root -1.20205 15.7358 23.4682 1.31724 1.83602 5.30872
lowerback 12.0277 -0.504438 -8.93336
upperback -5.3318 -2.07643 1.36342
thorax -12.3586 -0.18054 7.03669
lowerneck -9.81895 -5.0253 -4.29614
upperneck 20.099 -6.8155 2.86318
head 8.08177 -3.2993 0.980346
rclavicle 9.39258e-015 -1.51076e-014
rhumerus -43.8505 -6.07283 -79.7196
rradius 17.6792
rwrist 15.896
rhand -8.462 22.1959
rfingers 7.12502
rthumb 17.4643 -7.03965
lclavicle 9.39258e-015 -1.51076e-014
lhumerus -36.2615 6.55383 85.1946
lradius 27.8257
lwrist 2.52424
lhand -6.00215 19.0421
lfingers 7.12502
lthumb 19.8303 48.0504
rfemur -30.1952 14.5116 14.5445
rtibia 33.3197
rfoot -4.63345 -11.8503
rtoes 32.953
lfemur 18.3543 -4.06479 -29.3322
ltibia 19.3863
lfoot -3.86308 -2.52511
ltoes 10.1398
409
root -1.23032 15.739 23.6235 1.18614 1.72203 5.31443
lowerback 11.9536 -0.437083 -9.06249
upperback -5.24052 -1.99634 1.36045
thorax -12.2216 -0.143778 7.08405
lowerneck -9.92969 -5.11362 -4.35804
upperneck 20.0812 -6.94456 2.96954
head 8.1073 -3.35351 1.009
rclavicle -3.67752e-015 -6.36111e-015
rhumerus -43.1424 -6.41821 -79.5232
rradius 17.1559
rwrist 16.3173
rhand -8.56911 22.2661
rfingers 7.12502
rthumb 17.3612 -6.97852
lclavicle -3.67752e-015 -6.36111e-015
lhumerus -36.5675 7.026 84.865
lradius 27.3366
lwrist 2.35737
lhand -5.74312 19.1394
lfingers 7.12502
lthumb 20.0793 48.1218
rfemur -29.7576 14.4394 14.9443
rtibia 33.967
rfoot -5.13449 -11.4447
rtoes 33.1395
lfemur 17.0009 -3.01013 -28.6897
ltibia 22.1563
lfoot -2.2571 -3.37183
ltoes 10.7752
410
root -1.25796 15.741 23.7745 1.09553 1.75202 5.27357
lowerback 11.9008 -0.439397 -9.10219
upperback -5.15695 -1.99532 1.37328
thorax -12.0918 -0.15032 7.11596
lowerneck -9.89742 -5.11344 -4.44068
upperneck 19.8992 -6.96307 3.15768
head 8.05147 -3.35188 1.08485
rclavicle 1.6201e-014 2.3059e-014
rhumerus -42.458 -6.80849 -79.3334
rradius 16.8545
rwrist 16.9279
rhand -8.56051 22.2995
rfingers 7.12502
rthumb 17.3694 -6.94442
lclavicle 1.6201e-014 2.3059e-014
lhumerus -36.962 7.58913 84.4946
lradius 27.1666
lwrist 2.20192
lhand -5.03895 19.645
lfingers 7.12502
lthumb 20.756 48.555
rfemur -29.2531 14.252 15.384
rtibia 34.4609
rfoot -5.69384 -11.0606
rtoes 32.2372
lfemur 15.5585 -2.14972 -27.9906
ltibia 24.9592
lfoot -0.396993 -4.16192
ltoes 11.643
